Coordinates
version=1
nRows=29
nColumns=38
inDegrees=no

Units are S.I. units (second, meters, Newtons, ...)
If the header above contains a line with 'inDegrees', this indicates whether rotational values are in degrees (yes) or radians (no).

endheader
time	pelvis_tilt	pelvis_list	pelvis_rotation	pelvis_tx	pelvis_ty	pelvis_tz	hip_flexion_r	hip_adduction_r	hip_rotation_r	knee_angle_r	ankle_angle_r	subtalar_angle_r	mtp_angle_r	hip_flexion_l	hip_adduction_l	hip_rotation_l	knee_angle_l	ankle_angle_l	subtalar_angle_l	mtp_angle_l	lumbar_extension	lumbar_bending	lumbar_rotation	arm_flex_r	arm_add_r	arm_rot_r	elbow_flex_r	pro_sup_r	wrist_flex_r	wrist_dev_r	arm_flex_l	arm_add_l	arm_rot_l	elbow_flex_l	pro_sup_l	wrist_flex_l	wrist_dev_l
0.2	-0.0874929	-0.00886221	-0.122795	1.08542	1.05288	-0.340843	0.419213	0.107225	0.157487	-0.296988	0.19027	-0.000618317	1.62763e-06	-0.0144548	0.0443706	-0.108865	-0.694919	-0.16913	0.0477166	-6.92876e-06	-0.136867	0.00639866	-0.0200582	-0.715794	-0.219213	-0.25396	1.6804	1.78893	0.0533436	-0.0226169	-0.390703	-0.204521	-0.0196215	2.27984	1.70897	0.0304626	0.0234192
0.21	-0.0828789	-0.0123339	-0.122531	1.08546	1.04805	-0.340057	0.419965	0.1131	0.153428	-0.334714	0.163955	-0.000618317	1.62763e-06	-0.000496712	0.0300628	-0.127845	-0.767855	-0.153446	0.0477166	-6.92876e-06	-0.14116	0.0107081	-0.0142761	-0.715646	-0.222317	-0.257671	1.69462	1.78745	0.0533436	-0.0226169	-0.400101	-0.203805	-0.0193781	2.27577	1.70741	0.0304626	0.0234192
0.22	-0.0777801	-0.0161687	-0.122948	1.08517	1.04241	-0.339171	0.421944	0.120532	0.151439	-0.378582	0.148509	-0.000618317	1.62763e-06	0.0146922	0.0147518	-0.145899	-0.839977	-0.13651	0.0477166	-6.92876e-06	-0.14664	0.0149484	-0.00731545	-0.71055	-0.225898	-0.259262	1.70304	1.78613	0.0533436	-0.0226169	-0.40819	-0.202599	-0.0195386	2.26516	1.70919	0.0304626	0.0234192
0.23	-0.0721952	-0.020326	-0.124009	1.08457	1.03612	-0.338209	0.425056	0.129457	0.151488	-0.428348	0.143869	-0.000618317	1.62763e-06	0.0311114	-0.00148506	-0.162933	-0.911196	-0.118366	0.0477166	-6.92876e-06	-0.153312	0.0191071	0.000773049	-0.700469	-0.229948	-0.258712	1.70562	1.78499	0.0533436	-0.0226169	-0.414957	-0.200896	-0.0200976	2.24794	1.71433	0.0304626	0.0234192
0.24	-0.0660782	-0.0246677	-0.125597	1.08368	1.02944	-0.337213	0.429002	0.139667	0.153439	-0.483218	0.1497	-0.000618317	1.62763e-06	0.0487823	-0.0184134	-0.178669	-0.981245	-0.0991277	0.0477166	-6.92876e-06	-0.161148	0.0231565	0.00983257	-0.685324	-0.234443	-0.255957	1.7023	1.7841	0.0533436	-0.0226169	-0.420377	-0.198682	-0.0210392	2.224	1.72282	0.0304626	0.0234192
0.25	-0.0593959	-0.02908	-0.127498	1.08255	1.02268	-0.336233	0.433207	0.150727	0.156987	-0.541655	0.165132	-0.000618317	1.62763e-06	0.0677703	-0.0355754	-0.192627	-1.04963	-0.0789699	0.0477166	-6.92876e-06	-0.17006	0.027002	0.0195652	-0.665025	-0.239342	-0.250898	1.69301	1.78359	0.0533436	-0.0226169	-0.424423	-0.195942	-0.0223315	2.19316	1.73471	0.0304626	0.0234192
0.26	-0.0522792	-0.0333711	-0.129395	1.08119	1.01611	-0.335329	0.436841	0.162026	0.161644	-0.601411	0.18865	-0.000618317	1.62763e-06	0.0881934	-0.052347	-0.204175	-1.11565	-0.0581111	0.0477166	-6.92876e-06	-0.179882	0.0305532	0.029568	-0.639575	-0.24458	-0.243435	1.67788	1.7837	0.0533436	-0.0226169	-0.427103	-0.192675	-0.0239168	2.15532	1.75	0.0304626	0.0234192
0.27	-0.0449982	-0.0373243	-0.130916	1.07959	1.00988	-0.334565	0.438991	0.172864	0.166798	-0.659786	0.218216	-0.000618317	1.62763e-06	0.11027	-0.0680388	-0.212653	-1.17844	-0.0368059	0.0477166	-6.92876e-06	-0.190271	0.0337673	0.0394146	-0.609197	-0.250074	-0.233548	1.65739	1.78469	0.0533436	-0.0226169	-0.428501	-0.188915	-0.0256968	2.11062	1.76862	0.0304626	0.0234192
0.28	-0.0380576	-0.0407141	-0.131692	1.07776	1.00408	-0.334005	0.438866	0.182572	0.171827	-0.714049	0.251559	-0.000618317	1.62763e-06	0.134311	-0.0820274	-0.217541	-1.23706	-0.0153447	0.0477166	-6.92876e-06	-0.200699	0.0366838	0.0487633	-0.574457	-0.255719	-0.221375	1.63253	1.78679	0.0533436	-0.0226169	-0.428813	-0.184754	-0.0275289	2.0596	1.79032	0.0304626	0.0234192
0.29	-0.0320672	-0.0434396	-0.131445	1.07575	0.998835	-0.333685	0.435979	0.190601	0.176233	-0.761808	0.286469	-0.000618317	1.62763e-06	0.160693	-0.093845	-0.218621	-1.29055	0.00594212	0.0477166	-6.92876e-06	-0.210444	0.0393778	0.0574472	-0.53632	-0.261399	-0.207264	1.60491	1.79013	0.0533436	-0.0226169	-0.428375	-0.180365	-0.0292443	2.0034	1.81459	0.0304626	0.0234192
0.3	-0.02758	-0.0454738	-0.130053	1.07364	0.994294	-0.333596	0.430164	0.196585	0.179742	-0.801246	0.320977	-0.000618317	1.62763e-06	0.189743	-0.103245	-0.216064	-1.33801	0.0266846	0.0477166	-6.92876e-06	-0.218719	0.0419263	0.0655291	-0.496094	-0.266986	-0.19177	1.57669	1.7946	0.0533436	-0.0226169	-0.427676	-0.176022	-0.0307057	1.94385	1.84061	0.0304626	0.0234192
0.31	-0.0250054	-0.0468141	-0.127577	1.0715	0.990591	-0.33372	0.421437	0.200374	0.182354	-0.831197	0.353434	-0.000618317	1.62763e-06	0.221544	-0.110205	-0.210447	-1.37858	0.046488	0.0477166	-6.92876e-06	-0.224887	0.0443269	0.0732861	-0.455275	-0.272341	-0.175574	1.55042	1.79991	0.0533436	-0.0226169	-0.427358	-0.172099	-0.0318899	1.8835	1.86726	0.0304626	0.0234192
0.32	-0.0245301	-0.0474348	-0.124259	1.06937	0.987826	-0.334015	0.409826	0.201985	0.184313	-0.851111	0.382511	-0.000618317	1.62763e-06	0.25579	-0.114891	-0.202682	-1.41153	0.0649724	0.0477166	-6.92876e-06	-0.22865	0.0464442	0.0811165	-0.415348	-0.277324	-0.159372	1.52871	1.8056	0.0533436	-0.0226169	-0.428201	-0.169036	-0.0329533	1.8255	1.89316	0.0304626	0.0234192
0.33	-0.0260426	-0.0472947	-0.120462	1.06728	0.986071	-0.334433	0.395274	0.201546	0.186023	-0.860949	0.407168	-0.000618317	1.62763e-06	0.291758	-0.117604	-0.193907	-1.43622	0.0818284	0.0477166	-6.92876e-06	-0.230069	0.0479984	0.0894167	-0.377602	-0.281806	-0.143771	1.51387	1.81119	0.0533436	-0.0226169	-0.431067	-0.167268	-0.0342283	1.77328	1.91671	0.0304626	0.0234192
0.34	-0.0291988	-0.046332	-0.116587	1.06526	0.985377	-0.334903	0.377665	0.199231	0.187918	-0.861087	0.426607	-0.000618317	1.62763e-06	0.328419	-0.118721	-0.185336	-1.45216	0.0968711	0.0477166	-6.92876e-06	-0.229481	0.0486321	0.0984654	-0.343023	-0.285695	-0.129225	1.5076	1.81627	0.0533436	-0.0226169	-0.436809	-0.167128	-0.0361467	1.73015	1.93633	0.0304626	0.0234192
0.35	-0.0335517	-0.044482	-0.112981	1.06335	0.985772	-0.335361	0.356916	0.195213	0.190328	-0.852225	0.440208	-0.000618317	1.62763e-06	0.364616	-0.118649	-0.178121	-1.45904	0.110064	0.0477166	-6.92876e-06	-0.227336	0.0480029	0.108354	-0.312245	-0.288954	-0.116014	1.51083	1.82066	0.0533436	-0.0226169	-0.446143	-0.168771	-0.0391043	1.69872	1.95055	0.0304626	0.0234192
0.36	-0.0386639	-0.0417151	-0.109881	1.06158	0.987249	-0.335764	0.333082	0.189648	0.193397	-0.835302	0.447469	-0.000618317	1.62763e-06	0.399266	-0.117773	-0.173223	-1.45675	0.121501	0.0477166	-6.92876e-06	-0.224054	0.0458647	0.118975	-0.28556	-0.291605	-0.104252	1.52358	1.82448	0.0533436	-0.0226169	-0.4595	-0.172134	-0.0433427	1.68052	1.95833	0.0304626	0.0234192
0.37	-0.0441747	-0.0380452	-0.107392	1.06001	0.989768	-0.336084	0.306407	0.182665	0.197039	-0.811436	0.447965	-0.000618317	1.62763e-06	0.431475	-0.1164	-0.171313	-1.44536	0.131355	0.0477166	-6.92876e-06	-0.219976	0.0421193	0.130052	-0.262966	-0.29372	-0.0939191	1.54511	1.82808	0.0533436	-0.0226169	-0.476937	-0.176941	-0.048896	1.67574	1.95927	0.0304626	0.0234192
0.38	-0.0498201	-0.0335249	-0.105492	1.05866	0.993251	-0.336318	0.277321	0.174389	0.200956	-0.781874	0.441347	-0.000618317	1.62763e-06	0.460593	-0.114705	-0.172693	-1.42511	0.139815	0.0477166	-6.92876e-06	-0.215381	0.0368254	0.141211	-0.244233	-0.2954	-0.0848976	1.57413	1.83197	0.0533436	-0.0226169	-0.498098	-0.182756	-0.0556289	1.68326	1.95373	0.0304626	0.0234192
0.39	-0.0554133	-0.0282405	-0.104068	1.05753	0.997593	-0.336487	0.246405	0.164947	0.204692	-0.747954	0.427388	-0.000618317	1.62763e-06	0.486198	-0.112686	-0.177262	-1.39638	0.147044	0.0477166	-6.92876e-06	-0.21051	0.0301719	0.152042	-0.22897	-0.296752	-0.0769964	1.60902	1.8367	0.0533436	-0.0226169	-0.522285	-0.189043	-0.0633446	1.70093	1.94288	0.0304626	0.0234192
0.4	-0.0608092	-0.0223224	-0.102956	1.05662	1.00267	-0.336619	0.214342	0.154485	0.207716	-0.711066	0.406049	-0.000618317	1.62763e-06	0.50807	-0.110158	-0.184515	-1.3596	0.153161	0.0477166	-6.92876e-06	-0.205591	0.0224304	0.162164	-0.216702	-0.297875	-0.0699808	1.64807	1.84274	0.0533436	-0.0226169	-0.548575	-0.19524	-0.0718921	1.72602	1.92856	0.0304626	0.0234192
0.41	-0.0658973	-0.0159559	-0.101996	1.05591	1.00835	-0.336747	0.181856	0.14318	0.209507	-0.672609	0.377548	-0.000618317	1.62763e-06	0.526132	-0.106779	-0.19359	-1.31522	0.158232	0.0477166	-6.92876e-06	-0.200837	0.0139077	0.171279	-0.206938	-0.298848	-0.0636013	1.6897	1.85035	0.0533436	-0.0226169	-0.575954	-0.200827	-0.0812195	1.75565	1.9129	0.0304626	0.0234192
0.42	-0.0706152	-0.00931959	-0.101059	1.05538	1.01447	-0.336902	0.149653	0.131265	0.209634	-0.63395	0.342393	-0.000618317	1.62763e-06	0.540399	-0.102131	-0.203338	-1.26373	0.162288	0.0477166	-6.92876e-06	-0.19645	0.00493787	0.179203	-0.199218	-0.299727	-0.0576248	1.73253	1.85962	0.0533436	-0.0226169	-0.60344	-0.205372	-0.0913523	1.78717	1.89787	0.0304626	0.0234192
0.43	-0.0749194	-0.0025991	-0.100058	1.05498	1.02087	-0.337111	0.118378	0.119031	0.207805	-0.596369	0.301377	-0.000618317	1.62763e-06	0.550939	-0.0958134	-0.212441	-1.2056	0.165348	0.0477166	-6.92876e-06	-0.1926	-0.00413873	0.185867	-0.19315	-0.300554	-0.0518596	1.77544	1.87038	0.0533436	-0.0226169	-0.630168	-0.208566	-0.102338	1.8184	1.88487	0.0304626	0.0234192
0.44	-0.0787751	0.00399967	-0.0989397	1.05471	1.0274	-0.3374	0.0885914	0.106817	0.203912	-0.561032	0.255531	-0.000618317	1.62763e-06	0.557852	-0.087541	-0.219562	-1.14138	0.167448	0.0477166	-6.92876e-06	-0.189401	-0.0129869	0.191302	-0.188428	-0.301358	-0.0461689	1.81754	1.88226	0.0533436	-0.0226169	-0.655435	-0.210222	-0.114194	1.84774	1.87464	0.0304626	0.0234192
0.45	-0.0821543	0.0102462	-0.0976755	1.05454	1.0339	-0.337783	0.0607533	0.0950028	0.198043	-0.52897	0.206057	-0.000618317	1.62763e-06	0.561263	-0.0772327	-0.223512	-1.07171	0.168686	0.0477166	-6.92876e-06	-0.186898	-0.0212805	0.195609	-0.184824	-0.302159	-0.040476	1.85813	1.8947	0.0533436	-0.0226169	-0.67871	-0.21027	-0.126876	1.8742	1.86733	0.0304626	0.0234192
0.46	-0.0850391	0.0158901	-0.0962572	1.05445	1.04021	-0.338267	0.0352311	0.0839881	0.190485	-0.501077	0.154267	-0.000618317	1.62763e-06	0.56133	-0.0650772	-0.223444	-0.997422	0.16925	0.0477166	-6.92876e-06	-0.185069	-0.0287078	0.198944	-0.182193	-0.302968	-0.0347641	1.89658	1.90702	0.0533436	-0.0226169	-0.699626	-0.208735	-0.140261	1.8973	1.86265	0.0304626	0.0234192
0.47	-0.087431	0.0206788	-0.094697	1.05445	1.04619	-0.338848	0.0123215	0.0741612	0.181699	-0.478138	0.101526	-0.000618317	1.62763e-06	0.558259	-0.0515497	-0.219002	-0.919569	0.169432	0.0477166	-6.92876e-06	-0.183822	-0.0349826	0.201497	-0.180457	-0.303791	-0.0290731	1.93231	1.91847	0.0533436	-0.0226169	-0.717959	-0.205716	-0.15415	1.91694	1.86014	0.0304626	0.0234192
0.48	-0.0893657	0.0243897	-0.0930293	1.05454	1.05171	-0.339512	-0.00772479	0.0658626	0.172285	-0.460849	0.0492093	-0.000618317	1.62763e-06	0.552332	-0.0373711	-0.210424	-0.839507	0.169601	0.0477166	-6.92876e-06	-0.183015	-0.0398626	0.203483	-0.179606	-0.304629	-0.0235016	1.96476	1.92832	0.0533436	-0.0226169	-0.733599	-0.201366	-0.168269	1.93333	1.85926	0.0304626	0.0234192
